<?xml version="1.0" encoding="utf-8"?>
<!-- Generator: Adobe Illustrator 16.0.0, SVG Export Plug-In . SVG Version: 6.00 Build 0)  -->
<!DOCTYPE svg PUBLIC "-//W3C//DTD SVG 1.1//EN" "http://www.w3.org/Graphics/SVG/1.1/DTD/svg11.dtd">
<svg version="1.1" id="Layer_1" xmlns="http://www.w3.org/2000/svg" xmlns:xlink="http://www.w3.org/1999/xlink" x="0px" y="0px"
	 width="100px" height="200px" viewBox="0 0 100 200" enable-background="new 0 0 100 200" xml:space="preserve">
<g>
	<path fill="#565756" d="M44.354,72.528l-8.12,7.914l1.917,11.175c0.137,0.804-0.195,1.618-0.855,2.099
		c-0.375,0.271-0.819,0.41-1.261,0.41c-0.342,0-0.686-0.082-1-0.246L25,88.604L14.965,93.88c-0.724,0.38-1.599,0.316-2.26-0.162
		c-0.66-0.48-0.991-1.294-0.853-2.1l1.917-11.175l-8.12-7.915c-0.586-0.569-0.795-1.422-0.545-2.198
		c0.253-0.777,0.923-1.342,1.732-1.46l11.22-1.631l5.021-10.168c0.359-0.733,1.105-1.197,1.922-1.197
		c0.819,0,1.562,0.464,1.924,1.197l5.021,10.167l11.222,1.632c0.807,0.116,1.48,0.683,1.729,1.459
		C45.148,71.106,44.936,71.958,44.354,72.528z"/>
</g>
<g>
	<g>
		<path fill="#565756" d="M22.308,107.498H8.846c-0.743,0-1.346,0.604-1.346,1.347v13.461c0,0.743,0.603,1.346,1.346,1.346h13.461
			c0.743,0,1.346-0.603,1.346-1.346v-13.461C23.654,108.102,23.051,107.498,22.308,107.498z"/>
		<path fill="#565756" d="M41.154,107.498H27.692c-0.743,0-1.346,0.604-1.346,1.347v13.461c0,0.743,0.603,1.346,1.346,1.346h13.461
			c0.743,0,1.346-0.603,1.346-1.346v-13.461C42.5,108.102,41.897,107.498,41.154,107.498z M39.808,120.959H29.039V110.19h10.769
			V120.959z"/>
		<path fill="#565756" d="M22.308,126.345H8.846c-0.743,0-1.346,0.604-1.346,1.348v13.461c0,0.744,0.603,1.349,1.346,1.349h13.461
			c0.743,0,1.346-0.604,1.346-1.349v-13.464C23.654,126.945,23.051,126.345,22.308,126.345z M13.857,139.808
			c0.231-0.396,0.374-0.854,0.374-1.347c0-1.487-1.206-2.692-2.693-2.692c-0.493,0-0.949,0.144-1.346,0.373v-3.438
			c0.397,0.23,0.853,0.375,1.346,0.375c1.487,0,2.693-1.205,2.693-2.693c0-0.491-0.143-0.946-0.374-1.346h3.439
			c-0.231,0.396-0.374,0.854-0.374,1.346c0,1.488,1.206,2.693,2.693,2.693c0.493,0,0.949-0.145,1.346-0.375v3.438
			c-0.397-0.229-0.854-0.373-1.346-0.373c-1.487,0-2.693,1.205-2.693,2.692c0,0.492,0.143,0.949,0.374,1.347H13.857z"/>
		<path fill="#565756" d="M41.154,126.345H27.692c-0.743,0-1.346,0.604-1.346,1.348v6.729v6.729c0,0.742,0.603,1.346,1.346,1.346
			h6.73h6.73c0.744,0,1.346-0.604,1.346-1.346v-13.463C42.5,126.945,41.897,126.345,41.154,126.345z M29.039,134.979l5.942-5.941
			h2.924l-8.866,8.865V134.979z M29.039,129.037h2.135l-2.135,2.135V129.037z M39.808,130.939v2.923l-5.942,5.942h-2.924
			L39.808,130.939z M39.808,139.808h-2.136l2.136-2.138V139.808z"/>
		<circle fill="#565756" cx="15.578" cy="134.421" r="2.692"/>
	</g>
</g>
<g>
	<g>
		<path fill="#565756" d="M37.443,165.895c-1.021-2.91-3.79-4.998-7.048-4.998c-0.799,0-1.569,0.127-2.29,0.359
			c-1.682-2.871-4.799-4.801-8.367-4.801c-5.352,0-9.69,4.339-9.69,9.689c0,0.179,0.005,0.354,0.015,0.529
			C7.066,168.126,5,171.193,5,174.745c0,4.95,4.013,8.964,8.962,8.964h0.345l4.704,8.184c0.584,1.02,1.675,1.649,2.853,1.652l0,0
			c1.171,0,2.263-0.629,2.849-1.643l4.751-8.193h6.573c4.95,0,8.962-4.014,8.962-8.964C45,170.273,41.726,166.568,37.443,165.895z
			 M34.167,171.167c-0.027,0.388-0.339,0.694-0.728,0.715c-0.299,0.017-0.614,0.07-0.882,0.123
			c-2.216,0.429-4.188,1.531-5.554,3.106c-0.609,0.705-1.103,1.515-1.428,2.344c-0.385,0.982-0.642,1.945-0.768,2.878l2.365-0.005
			c0,0,0.001,0,0.002,0c0.274,0,0.528,0.146,0.666,0.385c0.137,0.238,0.137,0.532-0.001,0.77l-5.308,9.156
			c-0.137,0.236-0.391,0.383-0.665,0.383c-0.001,0-0.001,0-0.001,0c-0.275,0-0.528-0.146-0.666-0.386l-5.264-9.159
			c-0.137-0.234-0.136-0.531,0-0.769c0.138-0.237,0.392-0.385,0.666-0.385h2.714c0.441-1.384,0.94-2.546,1.521-3.541
			c0.445-0.765,0.885-1.408,1.345-1.97c0.421-0.516,0.895-1.014,1.449-1.524c0.47-0.437,1.038-0.854,1.735-1.283
			c1.128-0.692,2.411-1.192,3.923-1.528c0.011-0.002,0.022-0.004,0.033-0.006c0.864-0.152,1.59-0.229,2.286-0.242
			c0.098-0.002,0.195-0.002,0.294-0.002c0.644,0,1.165,0.041,1.642,0.133C33.925,170.432,34.193,170.777,34.167,171.167z"/>
	</g>
</g>
<g>
	<path fill="#0D6092" d="M94.354,72.528l-8.119,7.914l1.918,11.175c0.139,0.804-0.193,1.618-0.854,2.099
		c-0.375,0.271-0.817,0.41-1.261,0.41c-0.346,0-0.688-0.082-1-0.246l-10.035-5.276L64.965,93.88c-0.724,0.38-1.599,0.316-2.26-0.162
		c-0.66-0.48-0.992-1.294-0.854-2.1l1.918-11.175l-8.121-7.915c-0.586-0.568-0.795-1.422-0.545-2.198
		c0.254-0.777,0.924-1.342,1.731-1.46l11.222-1.631l5.021-10.169c0.358-0.733,1.104-1.196,1.922-1.196s1.562,0.464,1.925,1.197
		l5.021,10.167l11.224,1.632c0.808,0.116,1.479,0.683,1.729,1.46C95.146,71.106,94.936,71.958,94.354,72.528z"/>
</g>
<g>
	<g>
		<path fill="#0D6092" d="M72.309,107.498H58.846c-0.742,0-1.346,0.604-1.346,1.347v13.462c0,0.742,0.604,1.346,1.346,1.346h13.463
			c0.742,0,1.346-0.604,1.346-1.346v-13.462C73.654,108.102,73.051,107.498,72.309,107.498z"/>
		<path fill="#0D6092" d="M91.154,107.498H77.691c-0.742,0-1.346,0.604-1.346,1.347v13.462c0,0.742,0.604,1.346,1.346,1.346h13.463
			c0.742,0,1.346-0.604,1.346-1.346v-13.462C92.5,108.102,91.896,107.498,91.154,107.498z M89.809,120.959h-10.77v-10.77h10.77
			V120.959L89.809,120.959z"/>
		<path fill="#0D6092" d="M72.309,126.345H58.846c-0.742,0-1.346,0.604-1.346,1.348v13.461c0,0.744,0.604,1.347,1.346,1.347h13.463
			c0.742,0,1.346-0.603,1.346-1.347v-13.464C73.654,126.945,73.051,126.345,72.309,126.345z M63.857,139.808
			c0.229-0.396,0.373-0.854,0.373-1.349c0-1.485-1.205-2.69-2.691-2.69c-0.494,0-0.949,0.144-1.348,0.373v-3.438
			c0.396,0.231,0.854,0.375,1.348,0.375c1.486,0,2.691-1.205,2.691-2.693c0-0.49-0.145-0.945-0.373-1.346h3.438
			c-0.23,0.396-0.375,0.854-0.375,1.346c0,1.488,1.206,2.693,2.691,2.693c0.492,0,0.949-0.144,1.348-0.375v3.438
			c-0.396-0.229-0.854-0.373-1.348-0.373c-1.485,0-2.691,1.205-2.691,2.69c0,0.494,0.145,0.949,0.375,1.349H63.857z"/>
		<path fill="#0D6092" d="M91.154,126.345H77.691c-0.742,0-1.346,0.604-1.346,1.348v6.729v6.729c0,0.742,0.604,1.348,1.346,1.348
			h6.729h6.729c0.744,0,1.349-0.604,1.349-1.348v-13.463C92.5,126.945,91.896,126.345,91.154,126.345z M79.039,134.979l5.941-5.943
			h2.924l-8.865,8.867V134.979z M79.039,129.035h2.135l-2.135,2.137V129.035z M89.809,130.939v2.922l-5.94,5.943h-2.927
			L89.809,130.939z M89.809,139.808h-2.137l2.137-2.14V139.808z"/>
		<circle fill="#0D6092" cx="65.578" cy="134.421" r="2.692"/>
	</g>
</g>
<g>
	<g>
		<path fill="#0D6092" d="M87.441,165.895c-1.021-2.91-3.791-4.998-7.049-4.998c-0.8,0-1.568,0.127-2.291,0.359
			c-1.685-2.871-4.8-4.801-8.367-4.801c-5.354,0-9.689,4.34-9.689,9.689c0,0.18,0.006,0.354,0.016,0.529
			c-2.996,1.449-5.061,4.52-5.061,8.068c0,4.949,4.014,8.965,8.963,8.965h0.346l4.703,8.186c0.584,1.018,1.676,1.646,2.854,1.65
			h0.002c1.17,0,2.262-0.629,2.848-1.645l4.75-8.191h6.572c4.948,0,8.963-4.016,8.963-8.963
			C94.998,170.273,91.725,166.568,87.441,165.895z M84.164,171.168c-0.025,0.387-0.338,0.693-0.727,0.715
			c-0.301,0.016-0.615,0.07-0.883,0.123c-2.218,0.428-4.188,1.531-5.556,3.105c-0.608,0.705-1.104,1.516-1.429,2.344
			c-0.387,0.982-0.645,1.945-0.771,2.879l2.365-0.006c0.002,0,0.002,0,0.002,0c0.274,0,0.528,0.146,0.666,0.385
			c0.138,0.239,0.138,0.533,0,0.77l-5.31,9.156c-0.139,0.236-0.393,0.383-0.666,0.383c0,0,0,0-0.002,0
			c-0.272,0-0.526-0.146-0.664-0.385l-5.266-9.16c-0.137-0.234-0.137-0.531,0.002-0.768c0.137-0.238,0.391-0.385,0.666-0.385h2.713
			c0.441-1.385,0.939-2.547,1.521-3.541c0.443-0.766,0.885-1.408,1.346-1.971c0.42-0.516,0.896-1.014,1.447-1.523
			c0.471-0.438,1.039-0.855,1.734-1.283c1.127-0.693,2.41-1.193,3.924-1.529c0.012-0.002,0.021-0.004,0.031-0.006
			c0.864-0.152,1.594-0.229,2.287-0.242c0.1-0.002,0.194-0.002,0.293-0.002c0.646,0,1.166,0.041,1.645,0.133
			C83.924,170.432,84.191,170.777,84.164,171.168z"/>
	</g>
</g>
<g>
	<g>
		<path fill="#565756" d="M25,5C13.954,5,5,13.953,5,25c0,11.046,8.954,20,20,20c11.046,0,20-8.954,20-20C45,13.953,36.046,5,25,5z
			 M25,41.875c-9.32,0-16.875-7.556-16.875-16.875C8.125,15.68,15.68,8.125,25,8.125S41.875,15.68,41.875,25S34.32,41.875,25,41.875
			z"/>
		<path fill="#565756" d="M28.125,23.75h-0.664c0.024-0.196,0.039-0.405,0.039-0.625c0-1.031-1.125-1.875-2.5-1.875
			c-1.375,0-2.5,0.843-2.5,1.875c0,0.22,0.014,0.429,0.039,0.625h-0.664c-0.346,0-0.625,0.279-0.625,0.625v3.75
			c0,0.346,0.279,0.625,0.625,0.625h6.25c0.346,0,0.625-0.279,0.625-0.625v-3.75C28.75,24.029,28.47,23.75,28.125,23.75z
			 M23.75,23.75c-0.375-0.75,0.563-1.5,1.25-1.5s1.625,0.75,1.25,1.5H23.75z"/>
		<path fill="#565756" d="M33.977,29.311L36.375,25h-1.499c-0.062-5.652-4.423-9.963-9.905-9.97
			c-5.516-0.006-9.981,4.459-9.974,9.976c0.006,5.518,4.481,9.993,9.998,9.997c3.115,0.008,5.891-1.416,7.718-3.643l-1.194-1.99
			c-1.401,2.11-3.8,3.496-6.528,3.492c-4.334-0.002-7.851-3.52-7.854-7.854c-0.005-4.335,3.503-7.842,7.837-7.837
			c4.314,0.007,7.741,3.576,7.777,7.828l-1.488-0.003L33.977,29.311z"/>
	</g>
</g>
<g>
	<g>
		<path fill="#0D6092" d="M75,5c-11.047,0-20,8.953-20,20c0,11.046,8.953,20,20,20c11.046,0,20-8.954,20-20C95,13.953,86.046,5,75,5
			z M75,41.875c-9.32,0-16.875-7.556-16.875-16.875c0-9.32,7.555-16.875,16.875-16.875S91.875,15.68,91.875,25
			S84.32,41.875,75,41.875z"/>
		<path fill="#0D6092" d="M78.125,23.75h-0.664c0.025-0.196,0.039-0.405,0.039-0.625c0-1.031-1.125-1.875-2.5-1.875
			s-2.5,0.843-2.5,1.875c0,0.22,0.015,0.429,0.039,0.625h-0.664c-0.346,0-0.625,0.279-0.625,0.625v3.75
			c0,0.346,0.279,0.625,0.625,0.625h6.25c0.346,0,0.625-0.279,0.625-0.625v-3.75C78.75,24.029,78.471,23.75,78.125,23.75z
			 M73.75,23.75c-0.375-0.75,0.563-1.5,1.25-1.5s1.625,0.75,1.25,1.5H73.75z"/>
		<path fill="#0D6092" d="M83.977,29.311L86.375,25h-1.5c-0.062-5.652-4.423-9.963-9.904-9.97c-5.516-0.006-9.981,4.459-9.975,9.976
			c0.006,5.518,4.481,9.993,9.998,9.997c3.115,0.008,5.891-1.416,7.719-3.643l-1.194-1.99c-1.401,2.11-3.8,3.496-6.528,3.492
			c-4.334-0.002-7.85-3.52-7.854-7.854c-0.006-4.335,3.503-7.842,7.836-7.837c4.314,0.007,7.741,3.576,7.777,7.828l-1.488-0.003
			L83.977,29.311z"/>
	</g>
</g>
</svg>
